<svg width="375" height="812" viewBox="0 0 375 812" fill="none" xmlns="http://www.w3.org/2000/svg">
<g clip-path="url(#clip0_1_3715)">
<rect width="375" height="812" fill="white"/>
<g filter="url(#filter0_f_1_3715)">
<circle cx="310" cy="757" r="108" fill="#0EBE7E" fill-opacity="0.3"/>
</g>
<g filter="url(#filter1_f_1_3715)">
<circle cx="8" cy="75" r="108" fill="#61CEFF" fill-opacity="0.72"/>
</g>
<g clip-path="url(#clip1_1_3715)">
<path d="M217.951 370.491H206.509V359.049C206.509 356.266 204.243 354 201.46 354H174.536C171.753 354 169.488 356.266 169.488 359.049V370.491H158.049C155.266 370.491 153 372.753 153 375.54V402.464C153 405.247 155.266 407.512 158.049 407.512H169.491V418.955C169.491 421.738 171.753 424.004 174.54 424.004H201.464C204.247 424.004 206.512 421.738 206.512 418.955V407.512H217.955C220.738 407.512 223.004 405.247 223.004 402.464V375.54C223 372.753 220.734 370.491 217.951 370.491ZM217.613 402.125H206.509V381.258H201.125V418.613H174.875V407.509H195.738V402.125H158.383V375.875H169.488V396.738H174.871V359.383H201.118V370.488H180.262V375.871H217.617V402.125H217.613Z" fill="url(#paint0_linear_1_3715)"/>
</g>
<path d="M114.727 459C114.56 459 114.41 458.942 114.277 458.825C114.16 458.692 114.102 458.542 114.102 458.375V442.125C114.102 441.942 114.16 441.792 114.277 441.675C114.41 441.558 114.56 441.5 114.727 441.5H121.227C123.677 441.5 125.577 442.083 126.927 443.25C128.277 444.417 128.985 446.108 129.052 448.325C129.069 448.808 129.077 449.45 129.077 450.25C129.077 451.05 129.069 451.683 129.052 452.15C128.969 454.467 128.277 456.192 126.977 457.325C125.694 458.442 123.819 459 121.352 459H114.727ZM121.227 455.4C122.327 455.4 123.135 455.142 123.652 454.625C124.169 454.092 124.444 453.25 124.477 452.1C124.51 451.617 124.527 450.992 124.527 450.225C124.527 449.458 124.51 448.842 124.477 448.375C124.444 447.258 124.144 446.433 123.577 445.9C123.027 445.367 122.202 445.1 121.102 445.1H118.602V455.4H121.227ZM137.573 459.25C135.506 459.25 133.914 458.758 132.798 457.775C131.681 456.792 131.073 455.408 130.973 453.625C130.956 453.408 130.948 453.033 130.948 452.5C130.948 451.967 130.956 451.592 130.973 451.375C131.073 449.608 131.698 448.233 132.848 447.25C133.998 446.25 135.573 445.75 137.573 445.75C139.589 445.75 141.173 446.25 142.323 447.25C143.473 448.233 144.098 449.608 144.198 451.375C144.214 451.592 144.223 451.967 144.223 452.5C144.223 453.033 144.214 453.408 144.198 453.625C144.098 455.408 143.489 456.792 142.373 457.775C141.256 458.758 139.656 459.25 137.573 459.25ZM137.573 456.2C138.306 456.2 138.848 455.983 139.198 455.55C139.548 455.1 139.748 454.417 139.798 453.5C139.814 453.333 139.823 453 139.823 452.5C139.823 452 139.814 451.667 139.798 451.5C139.748 450.6 139.539 449.925 139.173 449.475C138.823 449.025 138.289 448.8 137.573 448.8C136.189 448.8 135.456 449.7 135.373 451.5L135.348 452.5L135.373 453.5C135.406 454.417 135.598 455.1 135.948 455.55C136.314 455.983 136.856 456.2 137.573 456.2ZM152.381 459.25C150.497 459.25 148.972 458.75 147.806 457.75C146.639 456.733 146.014 455.325 145.931 453.525L145.906 452.525L145.931 451.5C145.997 449.7 146.614 448.292 147.781 447.275C148.964 446.258 150.497 445.75 152.381 445.75C153.797 445.75 154.989 446.008 155.956 446.525C156.939 447.025 157.664 447.633 158.131 448.35C158.614 449.05 158.872 449.692 158.906 450.275C158.922 450.442 158.864 450.592 158.731 450.725C158.614 450.842 158.464 450.9 158.281 450.9H155.106C154.922 450.9 154.781 450.858 154.681 450.775C154.581 450.692 154.489 450.567 154.406 450.4C154.206 449.883 153.947 449.517 153.631 449.3C153.331 449.083 152.939 448.975 152.456 448.975C151.089 448.975 150.381 449.858 150.331 451.625L150.306 452.575L150.331 453.4C150.364 454.3 150.556 454.967 150.906 455.4C151.272 455.817 151.789 456.025 152.456 456.025C152.972 456.025 153.381 455.917 153.681 455.7C153.981 455.483 154.222 455.117 154.406 454.6C154.489 454.433 154.581 454.308 154.681 454.225C154.781 454.142 154.922 454.1 155.106 454.1H158.281C158.447 454.1 158.589 454.158 158.706 454.275C158.839 454.375 158.906 454.508 158.906 454.675C158.906 455.208 158.672 455.833 158.206 456.55C157.756 457.267 157.039 457.9 156.056 458.45C155.072 458.983 153.847 459.25 152.381 459.25ZM167.502 459C164.052 459 162.327 457.358 162.327 454.075V449.275H160.377C160.194 449.275 160.035 449.217 159.902 449.1C159.785 448.983 159.727 448.833 159.727 448.65V446.625C159.727 446.442 159.785 446.292 159.902 446.175C160.035 446.058 160.194 446 160.377 446H162.327V441.875C162.327 441.692 162.385 441.542 162.502 441.425C162.635 441.308 162.785 441.25 162.952 441.25H165.852C166.035 441.25 166.185 441.308 166.302 441.425C166.419 441.542 166.477 441.692 166.477 441.875V446H169.602C169.785 446 169.935 446.058 170.052 446.175C170.185 446.292 170.252 446.442 170.252 446.625V448.65C170.252 448.833 170.185 448.983 170.052 449.1C169.935 449.217 169.785 449.275 169.602 449.275H166.477V453.725C166.477 454.958 166.952 455.575 167.902 455.575H169.827C170.01 455.575 170.16 455.633 170.277 455.75C170.394 455.867 170.452 456.017 170.452 456.2V458.375C170.452 458.542 170.394 458.692 170.277 458.825C170.16 458.942 170.01 459 169.827 459H167.502ZM178.372 459.25C176.305 459.25 174.713 458.758 173.597 457.775C172.48 456.792 171.872 455.408 171.772 453.625C171.755 453.408 171.747 453.033 171.747 452.5C171.747 451.967 171.755 451.592 171.772 451.375C171.872 449.608 172.497 448.233 173.647 447.25C174.797 446.25 176.372 445.75 178.372 445.75C180.388 445.75 181.972 446.25 183.122 447.25C184.272 448.233 184.897 449.608 184.997 451.375C185.013 451.592 185.022 451.967 185.022 452.5C185.022 453.033 185.013 453.408 184.997 453.625C184.897 455.408 184.288 456.792 183.172 457.775C182.055 458.758 180.455 459.25 178.372 459.25ZM178.372 456.2C179.105 456.2 179.647 455.983 179.997 455.55C180.347 455.1 180.547 454.417 180.597 453.5C180.613 453.333 180.622 453 180.622 452.5C180.622 452 180.613 451.667 180.597 451.5C180.547 450.6 180.338 449.925 179.972 449.475C179.622 449.025 179.088 448.8 178.372 448.8C176.988 448.8 176.255 449.7 176.172 451.5L176.147 452.5L176.172 453.5C176.205 454.417 176.397 455.1 176.747 455.55C177.113 455.983 177.655 456.2 178.372 456.2ZM187.83 459C187.647 459 187.497 458.942 187.38 458.825C187.263 458.708 187.205 458.558 187.205 458.375V446.625C187.205 446.442 187.263 446.292 187.38 446.175C187.497 446.058 187.647 446 187.83 446H190.705C190.888 446 191.038 446.067 191.155 446.2C191.288 446.317 191.355 446.458 191.355 446.625V447.625C192.272 446.542 193.505 446 195.055 446H196.155C196.338 446 196.488 446.058 196.605 446.175C196.722 446.292 196.78 446.442 196.78 446.625V449.2C196.78 449.367 196.722 449.517 196.605 449.65C196.488 449.767 196.338 449.825 196.155 449.825H193.73C193.047 449.825 192.513 450.017 192.13 450.4C191.763 450.767 191.58 451.292 191.58 451.975V458.375C191.58 458.558 191.513 458.708 191.38 458.825C191.263 458.942 191.113 459 190.93 459H187.83ZM203.692 459C203.508 459 203.358 458.942 203.242 458.825C203.125 458.708 203.067 458.558 203.067 458.375V442.125C203.067 441.942 203.125 441.792 203.242 441.675C203.375 441.558 203.525 441.5 203.692 441.5H206.917C207.1 441.5 207.25 441.558 207.367 441.675C207.5 441.792 207.567 441.942 207.567 442.125V448.15H213.717V442.125C213.717 441.942 213.775 441.792 213.892 441.675C214.008 441.558 214.158 441.5 214.342 441.5H217.567C217.75 441.5 217.9 441.558 218.017 441.675C218.133 441.792 218.192 441.942 218.192 442.125V458.375C218.192 458.558 218.133 458.708 218.017 458.825C217.9 458.942 217.75 459 217.567 459H214.342C214.158 459 214.008 458.942 213.892 458.825C213.775 458.708 213.717 458.558 213.717 458.375V452.15H207.567V458.375C207.567 458.558 207.5 458.708 207.367 458.825C207.25 458.942 207.1 459 206.917 459H203.692ZM225.894 459.25C224.428 459.25 223.244 458.758 222.344 457.775C221.444 456.775 220.994 455.383 220.994 453.6V446.625C220.994 446.442 221.053 446.292 221.169 446.175C221.286 446.058 221.436 446 221.619 446H224.744C224.928 446 225.078 446.058 225.194 446.175C225.328 446.292 225.394 446.442 225.394 446.625V453.45C225.394 455.083 226.119 455.9 227.569 455.9C228.269 455.9 228.819 455.683 229.219 455.25C229.619 454.817 229.819 454.217 229.819 453.45V446.625C229.819 446.442 229.878 446.292 229.994 446.175C230.128 446.058 230.278 446 230.444 446H233.569C233.753 446 233.903 446.058 234.019 446.175C234.136 446.292 234.194 446.442 234.194 446.625V458.375C234.194 458.542 234.136 458.692 234.019 458.825C233.903 458.942 233.753 459 233.569 459H230.669C230.503 459 230.353 458.942 230.219 458.825C230.103 458.692 230.044 458.542 230.044 458.375V457.425C229.178 458.642 227.794 459.25 225.894 459.25ZM237.46 459C237.277 459 237.127 458.942 237.01 458.825C236.893 458.708 236.835 458.558 236.835 458.375V446.625C236.835 446.442 236.893 446.292 237.01 446.175C237.127 446.058 237.277 446 237.46 446H240.335C240.518 446 240.668 446.058 240.785 446.175C240.918 446.292 240.985 446.442 240.985 446.625V447.575C241.435 447.025 242.01 446.583 242.71 446.25C243.427 445.917 244.235 445.75 245.135 445.75C246.602 445.75 247.793 446.25 248.71 447.25C249.627 448.233 250.085 449.617 250.085 451.4V458.375C250.085 458.542 250.027 458.692 249.91 458.825C249.793 458.942 249.643 459 249.46 459H246.31C246.143 459 245.993 458.942 245.86 458.825C245.743 458.692 245.685 458.542 245.685 458.375V451.55C245.685 450.767 245.493 450.167 245.11 449.75C244.727 449.317 244.177 449.1 243.46 449.1C242.76 449.1 242.21 449.317 241.81 449.75C241.41 450.167 241.21 450.767 241.21 451.55V458.375C241.21 458.542 241.152 458.692 241.035 458.825C240.918 458.942 240.768 459 240.585 459H237.46ZM259.103 459C255.653 459 253.928 457.358 253.928 454.075V449.275H251.978C251.795 449.275 251.636 449.217 251.503 449.1C251.386 448.983 251.328 448.833 251.328 448.65V446.625C251.328 446.442 251.386 446.292 251.503 446.175C251.636 446.058 251.795 446 251.978 446H253.928V441.875C253.928 441.692 253.986 441.542 254.103 441.425C254.236 441.308 254.386 441.25 254.553 441.25H257.453C257.636 441.25 257.786 441.308 257.903 441.425C258.02 441.542 258.078 441.692 258.078 441.875V446H261.203C261.386 446 261.536 446.058 261.653 446.175C261.786 446.292 261.853 446.442 261.853 446.625V448.65C261.853 448.833 261.786 448.983 261.653 449.1C261.536 449.217 261.386 449.275 261.203 449.275H258.078V453.725C258.078 454.958 258.553 455.575 259.503 455.575H261.428C261.611 455.575 261.761 455.633 261.878 455.75C261.995 455.867 262.053 456.017 262.053 456.2V458.375C262.053 458.542 261.995 458.692 261.878 458.825C261.761 458.942 261.611 459 261.428 459H259.103Z" fill="#222222"/>
<path d="M22.1354 22C22.0514 22 21.9814 21.972 21.9254 21.916C21.8694 21.8507 21.8414 21.776 21.8414 21.692C21.8414 21.6267 21.86 21.566 21.8974 21.51L23.9554 18.668C23.75 18.7147 23.5587 18.7333 23.3814 18.724C22.756 18.7053 22.1867 18.5513 21.6734 18.262C21.16 17.9727 20.754 17.5807 20.4554 17.086C20.166 16.5913 20.0214 16.05 20.0214 15.462C20.0214 14.874 20.166 14.3233 20.4554 13.81C20.7447 13.2873 21.174 12.8673 21.7434 12.55C22.3127 12.2233 22.9987 12.06 23.8014 12.06C24.604 12.06 25.2947 12.214 25.8734 12.522C26.452 12.8207 26.886 13.2267 27.1754 13.74C27.474 14.244 27.6234 14.7993 27.6234 15.406C27.6234 15.7793 27.5627 16.134 27.4414 16.47C27.32 16.806 27.18 17.1 27.0214 17.352C26.872 17.5947 26.6574 17.912 26.3774 18.304L23.9134 21.72C23.8574 21.804 23.792 21.874 23.7174 21.93C23.652 21.9767 23.5587 22 23.4374 22H22.1354ZM23.8154 17.24C24.3287 17.24 24.758 17.0813 25.1034 16.764C25.458 16.4373 25.6354 16.0033 25.6354 15.462C25.6354 14.9207 25.458 14.4867 25.1034 14.16C24.758 13.8333 24.3287 13.67 23.8154 13.67C23.302 13.67 22.868 13.8333 22.5134 14.16C22.168 14.4867 21.9954 14.9207 21.9954 15.462C21.9954 16.0033 22.168 16.4373 22.5134 16.764C22.8587 17.0813 23.2927 17.24 23.8154 17.24ZM29.118 17.1C29.0247 17.1 28.9453 17.0673 28.88 17.002C28.8147 16.9367 28.782 16.8573 28.782 16.764V15.434C28.782 15.3313 28.8147 15.2473 28.88 15.182C28.9453 15.1167 29.0247 15.084 29.118 15.084H30.504C30.6067 15.084 30.6907 15.1167 30.756 15.182C30.8213 15.2473 30.854 15.3313 30.854 15.434V16.764C30.854 16.8573 30.8213 16.9367 30.756 17.002C30.6907 17.0673 30.6067 17.1 30.504 17.1H29.118ZM29.118 22C29.0247 22 28.9453 21.9673 28.88 21.902C28.8147 21.8367 28.782 21.7573 28.782 21.664V20.334C28.782 20.2313 28.8147 20.1473 28.88 20.082C28.9453 20.0167 29.0247 19.984 29.118 19.984H30.504C30.6067 19.984 30.6907 20.0167 30.756 20.082C30.8213 20.1473 30.854 20.2313 30.854 20.334V21.664C30.854 21.7573 30.8213 21.8367 30.756 21.902C30.6907 21.9673 30.6067 22 30.504 22H29.118ZM36.9718 22C36.8785 22 36.7991 21.9673 36.7338 21.902C36.6685 21.8367 36.6358 21.7573 36.6358 21.664V19.872H32.1978C32.1045 19.872 32.0251 19.8393 31.9598 19.774C31.8945 19.7087 31.8618 19.6293 31.8618 19.536V18.584C31.8618 18.4347 31.9131 18.2947 32.0158 18.164L36.1458 12.438C36.1925 12.3633 36.2625 12.3073 36.3558 12.27C36.4491 12.2233 36.5518 12.2 36.6638 12.2H38.1898C38.2925 12.2 38.3718 12.2327 38.4278 12.298C38.4931 12.354 38.5258 12.4333 38.5258 12.536V18.22H39.7718C39.8745 18.22 39.9585 18.2527 40.0238 18.318C40.0891 18.374 40.1218 18.4533 40.1218 18.556V19.536C40.1218 19.6293 40.0891 19.7087 40.0238 19.774C39.9585 19.8393 39.8791 19.872 39.7858 19.872H38.5258V21.664C38.5258 21.7573 38.4931 21.8367 38.4278 21.902C38.3718 21.9673 38.2925 22 38.1898 22H36.9718ZM36.6778 18.276V14.23L33.8078 18.276H36.6778ZM43.8382 22C43.7448 22 43.6655 21.9673 43.6002 21.902C43.5348 21.8367 43.5022 21.7573 43.5022 21.664V14.412L41.3742 16.05C41.3182 16.0967 41.2528 16.12 41.1782 16.12C41.0662 16.12 40.9728 16.0687 40.8982 15.966L40.3102 15.21C40.2635 15.1353 40.2402 15.0653 40.2402 15C40.2402 14.888 40.2915 14.7947 40.3942 14.72L43.5302 12.298C43.6142 12.2327 43.7308 12.2 43.8802 12.2H45.1122C45.2148 12.2 45.2942 12.2327 45.3502 12.298C45.4155 12.354 45.4482 12.4333 45.4482 12.536V21.664C45.4482 21.7573 45.4155 21.8367 45.3502 21.902C45.2942 21.9673 45.2148 22 45.1122 22H43.8382Z" fill="#222222"/>
<rect x="332.508" y="12.4558" width="19.7917" height="9.71086" rx="2.16667" stroke="#222222"/>
<path d="M353.745 15.421V19.2013C354.506 18.8812 355 18.1364 355 17.3112C355 16.486 354.506 15.7412 353.745 15.421Z" fill="#222222"/>
<rect x="333.898" y="13.8459" width="17.0114" height="6.93056" rx="1.33333" fill="#222222"/>
<path fill-rule="evenodd" clip-rule="evenodd" d="M320.038 14.1124C322.14 14.1125 324.163 14.9197 325.686 16.3671C325.801 16.4789 325.985 16.4775 326.098 16.364L327.194 15.2579C327.252 15.2004 327.284 15.1224 327.283 15.0412C327.283 14.9601 327.25 14.8825 327.192 14.8256C323.192 10.996 316.883 10.996 312.883 14.8256C312.825 14.8825 312.793 14.96 312.792 15.0412C312.791 15.1223 312.823 15.2003 312.88 15.2579L313.978 16.364C314.091 16.4776 314.274 16.4791 314.389 16.3671C315.913 14.9196 317.935 14.1124 320.038 14.1124ZM320.038 17.7108C321.193 17.7107 322.307 18.1398 323.163 18.9145C323.279 19.0245 323.462 19.0221 323.575 18.9091L324.67 17.8031C324.728 17.7451 324.76 17.6664 324.759 17.5846C324.758 17.5028 324.725 17.4248 324.666 17.3679C322.058 14.9444 318.02 14.9444 315.412 17.3679C315.353 17.4248 315.32 17.5028 315.319 17.5847C315.318 17.6665 315.35 17.7452 315.408 17.8031L316.504 18.9091C316.616 19.0221 316.799 19.0245 316.915 18.9145C317.77 18.1403 318.884 17.7113 320.038 17.7108ZM322.233 20.132C322.234 20.214 322.202 20.293 322.143 20.3505L320.248 22.2614C320.193 22.3176 320.117 22.3492 320.038 22.3492C319.959 22.3492 319.883 22.3176 319.828 22.2614L317.932 20.3505C317.874 20.293 317.841 20.2139 317.843 20.1319C317.845 20.0499 317.88 19.9722 317.941 19.9172C319.152 18.8944 320.924 18.8944 322.135 19.9172C322.195 19.9723 322.231 20.0499 322.233 20.132Z" fill="#222222"/>
<path fill-rule="evenodd" clip-rule="evenodd" d="M307.121 12.2708H306.176C305.654 12.2708 305.231 12.6939 305.231 13.2158V21.4065C305.231 21.9284 305.654 22.3516 306.176 22.3516H307.121C307.643 22.3516 308.066 21.9284 308.066 21.4065V13.2158C308.066 12.6939 307.643 12.2708 307.121 12.2708ZM301.766 14.4759H302.711C303.233 14.4759 303.656 14.8991 303.656 15.421V21.4065C303.656 21.9284 303.233 22.3516 302.711 22.3516H301.766C301.244 22.3516 300.821 21.9284 300.821 21.4065V15.421C300.821 14.8991 301.244 14.4759 301.766 14.4759ZM298.3 16.6811H297.355C296.833 16.6811 296.41 17.1042 296.41 17.6262V21.4065C296.41 21.9284 296.833 22.3516 297.355 22.3516H298.3C298.822 22.3516 299.246 21.9284 299.246 21.4065V17.6262C299.246 17.1042 298.822 16.6811 298.3 16.6811ZM293.89 18.5713H292.945C292.423 18.5713 292 18.9944 292 19.5163V21.4065C292 21.9284 292.423 22.3516 292.945 22.3516H293.89C294.412 22.3516 294.835 21.9284 294.835 21.4065V19.5163C294.835 18.9944 294.412 18.5713 293.89 18.5713Z" fill="#222222"/>
</g>
<defs>
<filter id="filter0_f_1_3715" x="81" y="528" width="458" height="458" filterUnits="userSpaceOnUse" color-interpolation-filters="sRGB">
<feFlood flood-opacity="0" result="BackgroundImageFix"/>
<feBlend mode="normal" in="SourceGraphic" in2="BackgroundImageFix" result="shape"/>
<feGaussianBlur stdDeviation="60.5" result="effect1_foregroundBlur_1_3715"/>
</filter>
<filter id="filter1_f_1_3715" x="-369" y="-302" width="754" height="754" filterUnits="userSpaceOnUse" color-interpolation-filters="sRGB">
<feFlood flood-opacity="0" result="BackgroundImageFix"/>
<feBlend mode="normal" in="SourceGraphic" in2="BackgroundImageFix" result="shape"/>
<feGaussianBlur stdDeviation="134.5" result="effect1_foregroundBlur_1_3715"/>
</filter>
<linearGradient id="paint0_linear_1_3715" x1="153" y1="357.59" x2="229.397" y2="372.455" gradientUnits="userSpaceOnUse">
<stop stop-color="#0EBE7E"/>
<stop offset="1" stop-color="#07D9AD"/>
</linearGradient>
<clipPath id="clip0_1_3715">
<rect width="375" height="812" fill="white"/>
</clipPath>
<clipPath id="clip1_1_3715">
<rect width="70" height="70" fill="white" transform="translate(153 354)"/>
</clipPath>
</defs>
</svg>
